<svg width="11" height="11" viewBox="0 0 11 11" fill="none" xmlns="http://www.w3.org/2000/svg">
<path d="M2.8482 0.785706C2.50957 0.785706 2.18482 0.920224 1.94537 1.15967C1.70593 1.39911 1.57141 1.72387 1.57141 2.06249V8.93749C1.57141 9.27612 1.70593 9.60087 1.94537 9.84032C2.18482 10.0798 2.50957 10.2143 2.8482 10.2143H6.60705L5.75966 9.36688C5.67758 9.2848 5.61247 9.18736 5.56805 9.08012C5.52363 8.97287 5.50076 8.85793 5.50076 8.74185C5.50076 8.62577 5.52363 8.51083 5.56805 8.40358C5.61247 8.29634 5.67758 8.19889 5.75966 8.11681C5.84174 8.03473 5.93919 7.96962 6.04643 7.9252C6.15367 7.88078 6.26862 7.85791 6.3847 7.85791C6.50078 7.85791 6.61572 7.88078 6.72296 7.9252C6.83021 7.96962 6.92765 8.03473 7.00973 8.11681L7.56248 8.66956L9.29459 6.93746C9.33623 6.89581 9.38102 6.85888 9.42855 6.82746V2.06249C9.42855 1.72387 9.29404 1.39911 9.05459 1.15967C8.81515 0.920224 8.49039 0.785706 8.15177 0.785706H2.8482ZM4.12498 3.43749C4.12498 3.56773 4.07324 3.69264 3.98115 3.78473C3.88906 3.87683 3.76415 3.92856 3.63391 3.92856C3.50367 3.92856 3.37876 3.87683 3.28667 3.78473C3.19458 3.69264 3.14284 3.56773 3.14284 3.43749C3.14284 3.30725 3.19458 3.18235 3.28667 3.09025C3.37876 2.99816 3.50367 2.94642 3.63391 2.94642C3.76415 2.94642 3.88906 2.99816 3.98115 3.09025C4.07324 3.18235 4.12498 3.30725 4.12498 3.43749ZM3.63391 5.99106C3.50367 5.99106 3.37876 5.93933 3.28667 5.84723C3.19458 5.75514 3.14284 5.63023 3.14284 5.49999C3.14284 5.36975 3.19458 5.24485 3.28667 5.15275C3.37876 5.06066 3.50367 5.00892 3.63391 5.00892C3.76415 5.00892 3.88906 5.06066 3.98115 5.15275C4.07324 5.24485 4.12498 5.36975 4.12498 5.49999C4.12498 5.63023 4.07324 5.75514 3.98115 5.84723C3.88906 5.93933 3.76415 5.99106 3.63391 5.99106ZM3.63391 8.05356C3.50367 8.05356 3.37876 8.00183 3.28667 7.90973C3.19458 7.81764 3.14284 7.69273 3.14284 7.56249C3.14284 7.43225 3.19458 7.30735 3.28667 7.21525C3.37876 7.12316 3.50367 7.07142 3.63391 7.07142C3.76415 7.07142 3.88906 7.12316 3.98115 7.21525C4.07324 7.30735 4.12498 7.43225 4.12498 7.56249C4.12498 7.69273 4.07324 7.81764 3.98115 7.90973C3.88906 8.00183 3.76415 8.05356 3.63391 8.05356ZM5.00891 3.14285H7.56248C7.64063 3.14285 7.71557 3.17389 7.77083 3.22915C7.82608 3.2844 7.85713 3.35935 7.85713 3.43749C7.85713 3.51564 7.82608 3.59058 7.77083 3.64584C7.71557 3.70109 7.64063 3.73213 7.56248 3.73213H5.00891C4.93077 3.73213 4.85582 3.70109 4.80057 3.64584C4.74531 3.59058 4.71427 3.51564 4.71427 3.43749C4.71427 3.35935 4.74531 3.2844 4.80057 3.22915C4.85582 3.17389 4.93077 3.14285 5.00891 3.14285ZM4.71427 5.49999C4.71427 5.42185 4.74531 5.3469 4.80057 5.29165C4.85582 5.23639 4.93077 5.20535 5.00891 5.20535H7.56248C7.64063 5.20535 7.71557 5.23639 7.77083 5.29165C7.82608 5.3469 7.85713 5.42185 7.85713 5.49999C7.85713 5.57814 7.82608 5.65308 7.77083 5.70834C7.71557 5.76359 7.64063 5.79463 7.56248 5.79463H5.00891C4.93077 5.79463 4.85582 5.76359 4.80057 5.70834C4.74531 5.65308 4.71427 5.57814 4.71427 5.49999ZM5.00891 7.26785H7.56248C7.64063 7.26785 7.71557 7.29889 7.77083 7.35415C7.82608 7.4094 7.85713 7.48435 7.85713 7.56249C7.85713 7.64064 7.82608 7.71558 7.77083 7.77084C7.71557 7.82609 7.64063 7.85713 7.56248 7.85713H5.00891C4.93077 7.85713 4.85582 7.82609 4.80057 7.77084C4.74531 7.71558 4.71427 7.64064 4.71427 7.56249C4.71427 7.48435 4.74531 7.4094 4.80057 7.35415C4.85582 7.29889 4.93077 7.26785 5.00891 7.26785ZM7.7707 10.1278L10.1278 7.77071C10.1568 7.74373 10.18 7.7112 10.1961 7.67506C10.2122 7.63892 10.2209 7.5999 10.2216 7.56034C10.2223 7.52078 10.215 7.48148 10.2002 7.44479C10.1854 7.4081 10.1633 7.37478 10.1353 7.3468C10.1073 7.31882 10.074 7.29676 10.0373 7.28194C10.0006 7.26712 9.96134 7.25985 9.92178 7.26055C9.88222 7.26124 9.8432 7.2699 9.80706 7.28601C9.77091 7.30211 9.73839 7.32533 9.71141 7.35428L7.56248 9.50321L6.59291 8.53363C6.53706 8.48159 6.46318 8.45325 6.38685 8.4546C6.31052 8.45595 6.23769 8.48687 6.1837 8.54085C6.12972 8.59484 6.0988 8.66767 6.09745 8.744C6.0961 8.82033 6.12444 8.89421 6.17648 8.95006L7.35427 10.1278C7.40951 10.183 7.4844 10.214 7.56248 10.214C7.64056 10.214 7.71545 10.183 7.7707 10.1278Z" fill="black"/>
</svg>
