<svg width="12" height="12" viewBox="0 0 12 12" fill="none" xmlns="http://www.w3.org/2000/svg">
<path d="M6.5 1.5H2.25C2.05109 1.5 1.86032 1.57902 1.71967 1.71967C1.57902 1.86032 1.5 2.05109 1.5 2.25V7.75C1.5 7.94891 1.57902 8.13968 1.71967 8.28033C1.86032 8.42098 2.05109 8.5 2.25 8.5H9.75C9.94891 8.5 10.1397 8.42098 10.2803 8.28033C10.421 8.13968 10.5 7.94891 10.5 7.75V6.25M6 8.5V10.5M3.5 10.5H8.5" stroke="black" stroke-linecap="round" stroke-linejoin="round"/>
<path d="M9.2767 1.09472C9.12543 1.15732 8.98796 1.24911 8.87216 1.36484L5.6527 4.58458C5.4646 4.7718 5.33136 5.00762 5.26743 5.26519L5.01747 6.26378C4.99282 6.3631 4.99428 6.4671 5.0217 6.56569C5.04911 6.66428 5.10156 6.7541 5.17395 6.82643C5.24633 6.89875 5.33619 6.95112 5.4348 6.97845C5.5334 7.00578 5.6374 7.00714 5.73668 6.98239L6.73518 6.73308C6.99253 6.66861 7.22752 6.53543 7.41507 6.34778L10.6345 3.1287C10.7503 3.01297 10.8422 2.87556 10.9049 2.72432C10.9676 2.57308 10.9999 2.41097 11 2.24724C11.0001 2.08351 10.9679 1.92137 10.9053 1.77009C10.8427 1.6188 10.7509 1.48132 10.6352 1.3655C10.5195 1.24969 10.3821 1.1578 10.2309 1.09508C10.0796 1.03237 9.91753 1.00006 9.75382 1C9.5901 0.999938 9.42798 1.03213 9.2767 1.09472Z" fill="black"/>
</svg>
