<svg width="16" height="16" viewBox="0 0 16 16" fill="none" xmlns="http://www.w3.org/2000/svg">
<g clip-path="url(#clip0_29_78)">
<path d="M2 1H9" stroke="black" stroke-width="0.75" stroke-linecap="round"/>
<path d="M1 1.99982L1 10.9952" stroke="black" stroke-width="0.75" stroke-linecap="round" stroke-linejoin="round"/>
<path d="M15 7L15 11" stroke="black" stroke-width="0.75" stroke-linecap="round" stroke-linejoin="round"/>
<path d="M1.99952 1C1.73443 1 1.4802 1.10531 1.29275 1.29275C1.10531 1.4802 1 1.73443 1 1.99952" stroke="black" stroke-width="0.75" stroke-linecap="round" stroke-linejoin="round"/>
<path d="M13.9938 11.9948H1.99951" stroke="black" stroke-width="0.75"/>
<path d="M13.9938 11.9948C14.125 11.9948 14.255 11.9689 14.3763 11.9187C14.4975 11.8684 14.6077 11.7948 14.7005 11.702C14.7934 11.6092 14.867 11.499 14.9172 11.3777C14.9674 11.2565 14.9933 11.1265 14.9933 10.9952" stroke="black" stroke-width="0.75" stroke-linecap="round" stroke-linejoin="round"/>
<path d="M1.99952 11.9948C1.86826 11.9948 1.73829 11.9689 1.61702 11.9187C1.49575 11.8684 1.38557 11.7948 1.29275 11.702C1.19994 11.6092 1.12631 11.499 1.07608 11.3777C1.02585 11.2565 1 11.1265 1 10.9952" stroke="black" stroke-width="0.75" stroke-linecap="round" stroke-linejoin="round"/>
<path d="M11.9948 14.9933H3.9986" stroke="black" stroke-width="0.75" stroke-linecap="round" stroke-linejoin="round"/>
<path d="M8.99615 11.9948V14.9933" stroke="black" stroke-width="0.75" stroke-linecap="round" stroke-linejoin="round"/>
<path d="M6.99713 11.9948V14.9933" stroke="black" stroke-width="0.75" stroke-linecap="round" stroke-linejoin="round"/>
<path d="M1 9.99573H14.9933" stroke="black" stroke-width="0.75" stroke-linecap="round" stroke-linejoin="round"/>
<path d="M14.6327 1.39229C14.2529 1.01389 13.7695 0.75639 13.2436 0.65222C12.7177 0.548051 12.1727 0.601876 11.6773 0.806915C11.1819 1.01195 10.7582 1.35903 10.4598 1.80441C10.1613 2.2498 10.0013 2.77356 10 3.30971" stroke="black" stroke-width="0.7" stroke-miterlimit="10" stroke-linecap="round"/>
<path d="M14.4141 0L14.6839 1.09363C14.6963 1.14129 14.699 1.19097 14.6916 1.23968C14.6843 1.28838 14.6672 1.3351 14.6413 1.377C14.6154 1.41889 14.5813 1.45511 14.541 1.48344C14.5007 1.51178 14.4551 1.53165 14.4069 1.54185L13.3133 1.81526" stroke="black" stroke-width="0.7" stroke-linecap="round" stroke-linejoin="round"/>
<path d="M10.7252 4.60773C11.105 4.98623 11.5883 5.24383 12.1143 5.34807C12.6403 5.4523 13.1854 5.3985 13.6808 5.19345C14.1763 4.9884 14.6 4.64127 14.8985 4.19582C15.197 3.75036 15.3569 3.22652 15.3582 2.69031" stroke="black" stroke-width="0.7" stroke-miterlimit="10" stroke-linecap="round"/>
<path d="M10.9439 6.00001L10.674 4.90638C10.6617 4.8587 10.6591 4.80901 10.6664 4.7603C10.6738 4.7116 10.691 4.66489 10.7169 4.623C10.7428 4.58111 10.7769 4.5449 10.8172 4.51657C10.8575 4.48824 10.9032 4.46837 10.9513 4.45816L12.0447 4.18475" stroke="black" stroke-width="0.7" stroke-linecap="round" stroke-linejoin="round"/>
</g>
<defs>
<clipPath id="clip0_29_78">
<rect width="16" height="16" fill="white"/>
</clipPath>
</defs>
</svg>
