<svg width="12" height="12" viewBox="0 0 12 12" fill="none" xmlns="http://www.w3.org/2000/svg">
<path d="M6 1.5H2.25C2.05109 1.5 1.86032 1.57902 1.71967 1.71967C1.57902 1.86032 1.5 2.05109 1.5 2.25V7.75C1.5 7.94891 1.57902 8.13968 1.71967 8.28033C1.86032 8.42098 2.05109 8.5 2.25 8.5H9.75C9.94891 8.5 10.1397 8.42098 10.2803 8.28033C10.421 8.13968 10.5 7.94891 10.5 7.75V6.5M6 8.5V10.5M3.5 10.5H8.5" stroke="black" stroke-linecap="round" stroke-linejoin="round"/>
<path d="M8 3.2C8.217 3.2 8.4251 3.28429 8.57854 3.43431C8.73198 3.58434 8.81818 3.78783 8.81818 4C8.81818 4.21217 8.73198 4.41566 8.57854 4.56569C8.4251 4.71571 8.217 4.8 8 4.8C7.783 4.8 7.5749 4.71571 7.42146 4.56569C7.26802 4.41566 7.18182 4.21217 7.18182 4C7.18182 3.78783 7.26802 3.58434 7.42146 3.43431C7.5749 3.28429 7.783 3.2 8 3.2ZM8 2C9.36364 2 10.5282 2.82933 11 4C10.5282 5.17067 9.36364 6 8 6C6.63636 6 5.47182 5.17067 5 4C5.47182 2.82933 6.63636 2 8 2ZM5.59455 4C5.81498 4.44008 6.15727 4.81087 6.58249 5.0702C7.00772 5.32954 7.49884 5.46702 8 5.46702C8.50116 5.46702 8.99228 5.32954 9.41751 5.0702C9.84273 4.81087 10.185 4.44008 10.4055 4C10.185 3.55992 9.84273 3.18913 9.41751 2.9298C8.99228 2.67046 8.50116 2.53298 8 2.53298C7.49884 2.53298 7.00772 2.67046 6.58249 2.9298C6.15727 3.18913 5.81498 3.55992 5.59455 4Z" fill="black"/>
</svg>
