<svg width="12" height="12" viewBox="0 0 12 12" fill="none" xmlns="http://www.w3.org/2000/svg">
<path d="M6 1.5H2.25C2.05109 1.5 1.86032 1.57902 1.71967 1.71967C1.57902 1.86032 1.5 2.05109 1.5 2.25V7.75C1.5 7.94891 1.57902 8.13968 1.71967 8.28033C1.86032 8.42098 2.05109 8.5 2.25 8.5H9.75C9.94891 8.5 10.1397 8.42098 10.2803 8.28033C10.421 8.13968 10.5 7.94891 10.5 7.75V6.5M6 8.5V10.5M3.5 10.5H8.5" stroke="black" stroke-linecap="round" stroke-linejoin="round"/>
<path d="M10.0885 1.92821C9.83523 1.67595 9.51301 1.50428 9.16239 1.43483C8.81177 1.36539 8.44844 1.40127 8.11818 1.53796C7.78791 1.67466 7.5055 1.90604 7.30651 2.20296C7.10753 2.49988 7.00088 2.84906 7 3.20649" stroke="black" stroke-width="0.7" stroke-miterlimit="10" stroke-linecap="round"/>
<path d="M9.94271 1L10.1226 1.72909C10.1309 1.76086 10.1326 1.79398 10.1278 1.82645C10.1229 1.85892 10.1115 1.89006 10.0942 1.918C10.0769 1.94593 10.0542 1.97007 10.0273 1.98896C10.0005 2.00785 9.97007 2.0211 9.93795 2.0279L9.20886 2.21017" stroke="black" stroke-width="0.7" stroke-linecap="round" stroke-linejoin="round"/>
<path d="M7.48346 4.0718C7.73667 4.32413 8.05891 4.49587 8.40957 4.56535C8.76023 4.63484 9.12361 4.59898 9.45391 4.46228C9.78422 4.32557 10.0667 4.09416 10.2657 3.79719C10.4647 3.50022 10.5713 3.15099 10.5721 2.79352" stroke="black" stroke-width="0.7" stroke-miterlimit="10" stroke-linecap="round"/>
<path d="M7.62928 5.00003L7.44939 4.27094C7.44113 4.23915 7.43941 4.20603 7.44432 4.17355C7.44923 4.14108 7.46067 4.10994 7.47794 4.08202C7.49522 4.05409 7.51798 4.02995 7.54485 4.01107C7.57171 3.99218 7.60212 3.97893 7.63425 3.97213L8.36312 3.78986" stroke="black" stroke-width="0.7" stroke-linecap="round" stroke-linejoin="round"/>
</svg>
