<svg width="12" height="12" viewBox="0 0 12 12" fill="none" xmlns="http://www.w3.org/2000/svg">
<path d="M6.5 1.5H2.25C2.05109 1.5 1.86032 1.57902 1.71967 1.71967C1.57902 1.86032 1.5 2.05109 1.5 2.25V7.75C1.5 7.94891 1.57902 8.13968 1.71967 8.28033C1.86032 8.42098 2.05109 8.5 2.25 8.5H9.75C9.94891 8.5 10.1397 8.42098 10.2803 8.28033C10.421 8.13968 10.5 7.94891 10.5 7.75V6.25M6 8.5V10.5M3.5 10.5H8.5" stroke="black" stroke-linecap="round" stroke-linejoin="round"/>
<path d="M3.35299 3.19647H3.88224V3.73247H4.41174V4.26772H3.88224V4.80347H3.35299V4.26772H2.82349V3.73222H3.35299V3.19647Z" fill="black"/>
<path d="M2.82324 5.60722C2.82324 5.45922 2.94199 5.33922 3.08824 5.33922L4.14699 5.33947C4.29324 5.33947 4.41174 5.45947 4.41174 5.60747V6.67847C4.41174 6.82647 4.29324 6.94647 4.14699 6.94647H3.08824C2.94199 6.94647 2.82324 6.82647 2.82324 6.67847V5.60722Z" fill="black"/>
<path d="M5.47074 3.19647C5.32449 3.19647 5.20599 3.31622 5.20599 3.46422L5.20574 4.53572C5.20574 4.68347 5.32449 4.80347 5.47074 4.80347H6.52924C6.67574 4.80347 6.79424 4.68372 6.79424 4.53572V3.46422C6.79424 3.31647 6.67574 3.19647 6.52949 3.19647H5.47074Z" fill="black"/>
<path d="M5.20574 5.60722C5.20574 5.45922 5.32449 5.33922 5.47074 5.33922L6.52924 5.33947C6.67574 5.33947 6.79424 5.45947 6.79424 5.60747V6.67847C6.79424 6.82647 6.67574 6.94647 6.52949 6.94647H5.47074C5.32449 6.94647 5.20574 6.82647 5.20574 6.67847V5.60722Z" fill="black"/>
<path d="M7.85299 3.19647C7.70674 3.19647 7.58824 3.31622 7.58824 3.46422V4.53572C7.58824 4.68347 7.70674 4.80347 7.85299 4.80347H8.91174C9.05799 4.80347 9.17649 4.68372 9.17649 4.53572V3.46422C9.17649 3.31647 9.05799 3.19647 8.91174 3.19647H7.85299Z" fill="black"/>
</svg>
