<?xml version="1.0" encoding="UTF-8"?>
<svg id="Calque_2" data-name="Calque 2" xmlns="http://www.w3.org/2000/svg" xmlns:xlink="http://www.w3.org/1999/xlink" viewBox="0 0 560.01 560.01">
  <defs>
    <style>
      .cls-1 {
        stroke-width: .51px;
      }

      .cls-1, .cls-2, .cls-3, .cls-4, .cls-5, .cls-6, .cls-7, .cls-8, .cls-9 {
        stroke-miterlimit: 10;
      }

      .cls-1, .cls-2, .cls-3, .cls-4, .cls-6, .cls-8, .cls-9 {
        stroke: #244191;
      }

      .cls-1, .cls-3, .cls-8, .cls-10 {
        fill: #244191;
      }

      .cls-2 {
        fill: #304393;
      }

      .cls-2, .cls-3, .cls-4, .cls-5, .cls-6, .cls-7 {
        stroke-width: 2.02px;
      }

      .cls-11 {
        fill: url(#Dégradé_sans_nom_113-3);
      }

      .cls-11, .cls-12, .cls-13, .cls-14, .cls-15, .cls-10 {
        stroke-width: 0px;
      }

      .cls-12 {
        fill: url(#Dégradé_sans_nom_113-2);
      }

      .cls-4, .cls-9 {
        fill: #fff;
      }

      .cls-5 {
        stroke: url(#Dégradé_sans_nom_8-2);
      }

      .cls-5, .cls-6, .cls-7 {
        fill: none;
      }

      .cls-13 {
        fill: url(#Dégradé_sans_nom_214);
      }

      .cls-14 {
        fill: url(#Dégradé_sans_nom_113);
      }

      .cls-15 {
        fill: url(#Dégradé_sans_nom_8-3);
      }

      .cls-7 {
        stroke: url(#Dégradé_sans_nom_8);
      }

      .cls-8, .cls-9 {
        stroke-width: 1.52px;
      }
    </style>
    <radialGradient id="Dégradé_sans_nom_8" data-name="Dégradé sans nom 8" cx="-320.67" cy="-251.81" fx="-320.67" fy="-251.81" r="199.71" gradientTransform="translate(600.68 531.81)" gradientUnits="userSpaceOnUse">
      <stop offset=".17" stop-color="#fff"/>
      <stop offset=".25" stop-color="#f9fbfd"/>
      <stop offset=".35" stop-color="#e8f1f9"/>
      <stop offset=".47" stop-color="#cde1f3"/>
      <stop offset=".59" stop-color="#a8caea"/>
      <stop offset=".68" stop-color="#88b7e3"/>
      <stop offset=".8" stop-color="#396bb3"/>
      <stop offset=".8" stop-color="#3664ad"/>
      <stop offset=".81" stop-color="#30539f"/>
      <stop offset=".82" stop-color="#263687"/>
      <stop offset=".82" stop-color="#263687"/>
    </radialGradient>
    <radialGradient id="Dégradé_sans_nom_8-2" data-name="Dégradé sans nom 8" cx="-155.43" cy="-303.79" fx="-155.43" fy="-303.79" r="199.71" gradientTransform="translate(435.43 583.79)" xlink:href="#Dégradé_sans_nom_8"/>
    <radialGradient id="Dégradé_sans_nom_8-3" data-name="Dégradé sans nom 8" cx="339.96" cy="-99.9" fx="339.96" fy="-99.9" r="239.11" gradientTransform="translate(-59.96 379.91)" xlink:href="#Dégradé_sans_nom_8"/>
    <radialGradient id="Dégradé_sans_nom_113" data-name="Dégradé sans nom 113" cx="451.65" cy="231.55" fx="451.65" fy="231.55" r="10.05" gradientTransform="translate(426.36 -275.37) rotate(60)" gradientUnits="userSpaceOnUse">
      <stop offset=".17" stop-color="#fff"/>
      <stop offset=".25" stop-color="#f9fbfd"/>
      <stop offset=".35" stop-color="#e8f1f9"/>
      <stop offset=".47" stop-color="#cde1f3"/>
      <stop offset=".59" stop-color="#a8caea"/>
      <stop offset=".68" stop-color="#88b7e3"/>
      <stop offset=".82" stop-color="#396bb3"/>
      <stop offset=".86" stop-color="#3664ad"/>
      <stop offset=".92" stop-color="#30539f"/>
      <stop offset=".99" stop-color="#263687"/>
      <stop offset=".99" stop-color="#263687"/>
    </radialGradient>
    <radialGradient id="Dégradé_sans_nom_113-2" data-name="Dégradé sans nom 113" cx="484.13" cy="201.81" fx="484.13" fy="201.81" r="9.44" gradientTransform="translate(38.4 -66.1) rotate(10.3)" xlink:href="#Dégradé_sans_nom_113"/>
    <linearGradient id="Dégradé_sans_nom_214" data-name="Dégradé sans nom 214" x1="96.32" y1="179.24" x2="344.5" y2="322.53" gradientUnits="userSpaceOnUse">
      <stop offset="0" stop-color="#fff"/>
      <stop offset=".06" stop-color="#e3eef8"/>
      <stop offset=".15" stop-color="#c2daf0"/>
      <stop offset=".25" stop-color="#a8caea"/>
      <stop offset=".34" stop-color="#96bfe6"/>
      <stop offset=".44" stop-color="#8bb9e3"/>
      <stop offset=".55" stop-color="#88b7e3"/>
      <stop offset=".9" stop-color="#3c75ba"/>
    </linearGradient>
    <radialGradient id="Dégradé_sans_nom_113-3" data-name="Dégradé sans nom 113" cx="258.16" cy="269.97" fx="258.16" fy="269.97" r="177.5" gradientTransform="matrix(1,0,0,1,0,0)" xlink:href="#Dégradé_sans_nom_113"/>
  </defs>
  <g id="Calque_5" data-name="Calque 5">
    <rect class="cls-7" x="81.31" y="81.31" width="397.4" height="397.4" rx="2.4" ry="2.4" transform="translate(665.87 191.03) rotate(122.01)"/>
    <rect class="cls-5" x="81.31" y="81.31" width="397.4" height="397.4" rx="2.4" ry="2.4" transform="translate(632.26 99.11) rotate(107.82)"/>
  </g>
  <g id="Calque_2-2" data-name="Calque 2">
    <rect class="cls-15" x="81.31" y="81.31" width="397.4" height="397.4" rx="2.4" ry="2.4" transform="translate(280.01 -115.98) rotate(45)"/>
  </g>
  <g id="Calque_1-2" data-name="Calque 1">
    <path class="cls-2" d="M444.75,128.68c5.77,3.84,11.32,8.08,16.04,13.15s8.61,11.02,10.71,17.62c1.23,3.86,1.83,7.89,2.39,11.9.28,2.04.56,4.09.44,6.15-3.36-5.82-8.69-10.47-14.91-13.01-4-1.64-13.32-2.88-17.21-4.77-3.57-1.74-3.31.3-6.71-1.76-3.01-1.82-4.15-5.58-4.77-9.04-.65-3.68-.93-7.67.85-10.95,1.29-2.37,3.51-4.09,5.83-5.47,2.32-1.37,4.8-2.48,7.02-4.02.25-.17.6.14.31.21Z"/>
    <path class="cls-4" d="M69.86,254.2c-1.21,4.45-.06,9.16.24,13.76.27,4.09.1,5.8-1.31,9.64s-4.92,7.05-10.56,8.86c-5.35,1.72-13.31,3.7-18.41.18,2.99,5.85,8.92,8.25,13.55,8.5,4.3.23,10.93.9,15.34-2.11.22-.15.51.11.35.32-7.23,9.37-18.5,9.4-22.03,10.18-8.72,1.92-13.6,10.41-21.84,13.11,3.81.99,10.17,4.63,16.99,2.66,6.92-2,26.57-12.07,26.57-12.07.02-.01.05.02.03.03-.99.85-8.94,4.48-8.96,4.5-7.3,3.28-9.09,3.6-12.56,7.36-8.11,8.77-4.52,9.94-15.92,27.66,8.06-3.25,19.7-7.11,26.65-15.52,6.33-7.68,15.46-13.26,19.75-21.68.08-.17.33-.09.31.1-1.23,7.8-11.29,10.67-13.91,20.35-1.34,4.96-3.13,9.77-4.71,14.66-2.33,7.18-7.52,12.82-11.68,19.18,3.44-2.93,7.26-5.42,11.33-7.37,2.92-1.4,5.98-2.53,8.66-4.35,3.53-2.4,6.18-5.86,8.58-9.39,7.08-10.41,12.43-24.01,11.44-35.22,0-.1.13-.14.17-.04,1.79,4.35,1.43,9.34.23,13.9-1.23,4.68-3.31,9.1-4.78,13.72-2.21,6.93-1.69,5.87-1.09,13.12,1.11-9.25,8.72-6.76,13.9-14.51,6.63-9.93,6.53-23.87-.14-33.75-.11-.16.09-.35.24-.23,5.21,3.95,5.34,13.6,11.13,16.74,5.31,2.87,14.21-1.11,19.03-4.73-3.94.64-10.36-.04-14.71-3.66-4.77-3.97-6.28-8.51-8.14-14.23-.82-2.5-.93-5.19-.3-7.75,2.43-9.79,3.03-20.75-1.19-30.06-2.38-5.25-6.47-9.84-11.59-12.55-2.17-1.15-5.51-2.69-8.03-2.38s-5.29,3.07-7.08,4.7c-2.51,2.29-4.64,5.07-5.54,8.39Z"/>
    <path class="cls-4" d="M109.7,415.63c.38,3.53-.22,9.33-2.63,20.56-1.35,6.29-1.2,7.39-3.01,12.33,4.9-2.54,8.41-5.15,10.88-9.24,2.26-3.74,3.61-8.84,4.39-13.62.72-4.36-1,9.07-3.56,13.38-1.62,2.73-3.04,5.44-4.21,8.39-1.26,3.17-3.26,16.21-4.9,19.42,3.79-3.45,8.7-5.01,12.72-8.15,3.26-2.54,6.15-11.66,6.78-13.6,1.27-3.94-3.08,9.69-5.48,14.33-.62,1.21-1.43,3.17-1.73,4.5-.75,3.37-.68,14.45-1.86,19.3,2.91-3.23,6.14-4.99,8.7-8.01,6.92-8.16,10.82-42.44,8.68-28.84-.5,3.18-1.41,14.77-4.08,21.06-2.65,6.23-3.15,14.87-2.76,21.63.27,4.66,5.23,19.49,5.63,23.91.87-4.59,6.52-18.08,7.47-20.85,1.46-4.27,2.03-5.68,2.42-8.46,1.69-11.82-1.02-29.64-1.41-33.33-.06-.57,1.48,9.62,1.92,14.27.27,2.91,1.43,5.27,2.41,8.03,1.97,5.53,7.22,9.1,12.15,12.29-2.14-4.82-1.7-5.96-2.1-14.31-.17-3.61-.83-7.17-1.65-10.7-3.98-17.06-8.63-34.87-20.56-47.7-5.84-6.27-13.11-10.99-20.31-15.64-1.93-1.25-5.6-3.44-7.7-1.25-1.68,1.75-.06,4.44.77,6.22,2.8,6.03,2.3,7.42,3.02,14.06Z"/>
    <path class="cls-9" d="M304.67,490.89c19.37-4.61,35.73-13.51,45.82-19,12.37-6.73,29.05-17.26,27.94-19.56-1.35-2.82-26.74,12.07-65.94,16.76-23.03,2.76-41.5.87-51.41-.56-11.82-1.71-34.41-5.18-59.79-19-9.02-4.91-16.74-10.22-23.44-15.62,1.74.58,3.47,1.16,5.2,1.72,3.44,1.12,6.92,2.23,10.52,2.54,3.43.3,5.07-1.2,6.88-.92.86.13,1.56-.68,1.29-1.51-1.1-3.31-1.17-5.54-5.31-7.42-2.66-1.21-4.92-2.56-7.8-3.08-4.6-.82-14.62-3.22-14.06-3.11,3.64.69,21.17,4.9,33.09,4.21,2.94-.17,15.35-4.09,18.35-4.89,3.94-1.05,5.33-1.82,7.17-2.1,2.44-.37.59-.88.05-1.01-2.75-.66-4.75-.84-8.15-2.94-5.03-3.12-6.52-3.55-12.83-4.35-6.77-.86-13.71-.56-20.26,1.38-4.84,1.43-12.09,1.78-16.83,1.95,8.07-.79,20.73-2.63,25.54-6.06,3.22-2.3,5.25-5.37,8.72-8-4.93.77-7.94.76-12.02.65-2.6-.07-4.22-1.04-8.34-.27-1.2.22-3.07.87-4.13,1.48-4.1,2.36-18.16,4.85-14.28,3.95,1.98-.46,11.31-2.57,14.12-5.61,3.47-3.74,5.43-8.5,9.19-11.99-3.33,1.37-16.49,2.26-19.76,3.25-3.04.91-5.56,3.01-8.42,4.39-4.51,2.18-18.33,1.86-13.93,1.51,4.83-.38,9.83-.53,13.95-3.23,3.99-2.61,7.18-5.39,10.12-10.07-5.07,1.39-16.21,4.47-18.32,4.99-4.14,1.02-6.91,1.49-10.4.81-5.2-1.01-10.02-2.85-14.67-5.21-5.44-7.41-9.35-14.39-12.27-23.22-1.46-4.42-2.48-8.73-3.12-13.04,4.41,4.36,7.52,6.39,9.72,11.18.17-7.27-.07-10.98-2.68-17.77-1.74-4.52-6.71-18.43-6.77-19.85-.01-.27.33-.27.38,0,1.74,9.3,7.38,18.78,12.9,26.96,9.54,14.15,31.78,17.68,31.78,17.68,0,0-6.11-5.46-14.95-29.71-.96-2.64-15.84-13.32-20.46-20.89-.1-.16.21-.28.3-.12,4.77,8.16,14.03,14.44,20.2,20.55,7.75,7.69,20.03,11.14,28.26,13.91-10.15-11.99-8.18-13.56-17.49-26.69-1.49-2.1-10.99-5.64-12.17-6.23-4.33-2.17-9.1-6.26-9.59-5.66-.53.65,14.57,10.09,26.84,11.78,7.03.97,13.11-2.67,16.86-3.88-8.39-2.23-13.79-10.17-22.61-11.58-3.58-.57-19.93-4.91-22.58-8.89-.14-.21.09-.43.33-.35,16.86,5.62,27.58-6.59,27.97-7.39-5.48.83-12.46,1.65-17.89.24-5.74-1.48-9.39-4.38-11.05-8.23-1.62-3.76-1.9-5.46-1.86-9.55.04-4.61.91-9.37-.55-13.75-.03-.1-.08-.19-.11-.29,4.28-15.28,8.97-28.02,17.97-42.59,6.5-10.53,21.92-34.91,50.85-51.97,2.46-1.45,4.7-2.66,6.79-3.69-11.58,13.39-21.19,28.3-25.38,45.5-.85,3.49-1.25,7.08-1.23,10.67.03,5.18.37,10.8,1.11,15.89,1.31,9.07,2.11,17.74.58,26.78,4.28-4.47,19.26-15.01,21.35-24.93,4.26-20.26,7.79-32.89,17.78-47.38-4.77,7.65-8.87,15.94-11.62,22.9-5.71,14.45-7.66,30.8-2.97,45.62,2.34,7.39,6.24,14.18,9.36,21.27,4.27,9.69,5.63,20.39,9.93,30.15-.12-8.2-2.68-15.39-.62-22.84,1.75-6.32,5.07-12.1,7.18-18.31,3.46-10.19,4.08-15.01,6.89-29.43,3.42-17.56,8.43-36.25,15.44-51.59.08-.18.36-.04.29.14-3.76,10.32-27.02,69.31-16.19,100.47,2.6,7.48,5.2,15.16,10.33,21.19,3.53,4.15,7.9,7.48,12.04,11.01,10.39,8.85,19.55,19.13,27.15,30.47,1.77-15.12-5.38-22.84-8.08-33.42-.81-3.16.52-6.52.91-9.77,2.53,3.84,5.21,9.04,8.43,12.4,10.9,11.38,34.58,27.95,43.38,32.01-5.09-6.4-7.58-14.46-9.41-22.43-1.83-7.97-3.12-16.13-6.25-23.69-2.64-6.37-6.56-12.2-11.46-17.05.01-.02,0,0,0-.01,4.59,1.68,9.24,3.22,13.68,5.26,9.67,4.44,17.1,15.22,24.8,19.59-8.49-12.73-12.35-23.45-15.63-31.84-3.47-8.86-9.09-18.52-13.61-26.88-9.14-16.92-17.04-40.38-12.5-55.84.05-.16.32-.12.28.04-3.42,16.44.92,33.51,10.99,46.06,4.49,5.6,6.41,6.95,9.75,9.61,7.38,5.88,18.58,11.09,22.72,16.53-2.19-6.66-1.39-7.01-11.6-25.98-8.65-16.06-11.07-22.39-11.89-32.18-.63-7.6.3-15.3,3.11-22.39,4.97-12.53,11.91-15.7,16.12-17.51,8.71-3.73,18.27-5.43,27.74-5.06,4.38.17,8.73.79,12.99,1.84,10.68,4.87,19.52,12.92,23.48,23.05.36.92.78,1.74,1.24,2.48-1.21,5.62-2.35,11.25-2.23,16.95.2,9.12,3.76,18.12,9.85,24.91,10.24,11.4,25.94,16.66,37.79,26.37,7.06,5.79,19.41,12.39,26.05,9.16,3.06-1.49,6.94-3.74,9.52-9.34,2.58-5.6.1-19.7,0-25.86-.23-13.5,2.05-17.35-1.22-30.45-1.53-6.13-3.33-12.32-6.88-17.54-4.21-6.18-10.54-10.52-16.72-14.72-7.17-4.87-14.92-11.77-22.91-16.65-.87-1.64-1.59-2.98-2.08-3.87.63-8.03-3.56-12.72-1.12-15.65,1.66-1.99,5.1-1.6,8.94-1.12,4.07.51,11.87,1.5,19.56,7.82,10.54,8.67,14.73,23.87,14.73,23.87,0,0,.31-7.33-.2-13.26-1.34-15.83-7.45-29.13-14.53-39.02-8.23-11.5-14.48-17.58-21.79-24.13-7.11-6.37-14.74-12.62-25.71-18.44-5.34-2.83-14.97-5.29-24.59-7.26-8.92-1.84-16.74-1.58-25.15-.56-10.83,1.32-20.89,2.55-29.26,4.31-13.18-2.84-26.96-2.39-54.01-1.51-34.4,1.12-56.97,1.86-82.15,10.06-56.08,18.27-87.76,61.39-97.79,75.44-11.31,15.84-25.6,40.47-33.53,73.2-2.36,9.73-9.35,41.65-3.35,82.7,4.84,33.09,15.88,56.83,20.12,65.38,17.57,35.47,40.71,57.18,50.85,65.94,7.49,6.48,36.53,30.64,82.15,43.59,21.46,6.09,49.22,13.98,82.15,6.15ZM279.9,190.02c-10.41,17.12-15.61,39.07-10.83,58.82.55,2.26,1.27,4.46,2.12,6.62-.23.21-.45.44-.65.68-.31-.83-.61-1.67-.89-2.51-7.05-21.2-1.41-45.31,10.08-63.71.06-.1.23,0,.17.1Z"/>
    <ellipse class="cls-14" cx="451.65" cy="231.55" rx="7.16" ry="12.27" transform="translate(25.3 506.92) rotate(-60)"/>
    <ellipse class="cls-12" cx="478.67" cy="218.99" rx="5.91" ry="11.97" transform="translate(-21.12 53.8) rotate(-6.29)"/>
    <path class="cls-13" d="M96.75,301.69c0-107.33,87.01-194.34,194.34-194.34,56.05,0,106.55,23.74,142.01,61.7-36.48-49.05-96.65-81.09-164.71-81.09-111.27,0-201.48,85.63-201.48,191.25,0,62.09,31.18,117.26,79.48,152.2-30.86-34.4-49.64-79.86-49.64-129.72Z"/>
    <path class="cls-11" d="M104.9,311.98c0-107.33,87.01-194.34,194.34-194.34,56.05,0,106.55,23.74,142.01,61.7-36.48-49.05-96.65-81.09-164.71-81.09-111.27,0-201.48,85.63-201.48,191.25,0,62.09,31.18,117.26,79.48,152.2-29.72-36.01-49.64-79.86-49.64-129.72Z"/>
    <path class="cls-6" d="M157.86,323.06c7.85,1.72,13.33.86,22.42-3.04-8.39-2.23-13.74-10.42-22.56-11.83-3.58-.57-19.93-4.91-22.58-8.89-.14-.21.09-.43.33-.35,14.95,5.48,25.82-2.02,28.47-8.04-2.84,1.29-12.95,2.29-18.39.88-5.74-1.48-9.39-4.38-11.05-8.23-2.47-5.72-1.81-6.67-1.7-18.58.01-1.58-.22-3.16-.69-4.66-.12-.37.26.86-.13-.35,4.28-15.28,8.97-28.02,17.97-42.59,6.5-10.53,21.92-34.91,50.85-51.97,2.46-1.45,4.7-2.66,6.79-3.69-10.69,12.37-19.71,26.03-24.32,41.6-1.34,4.51-2.29,9.17-2.28,13.87,0,5.38,1.26,10.66,2.03,15.98,1.31,9.07,16.49,15.14,18.58,5.22,4.26-20.26,21.54-58.17,20.22-50.14-.29,1.75-8.87,15.94-11.62,22.9-5.71,14.45-6.85,30.57-2.97,45.62,1.85,7.15,5.01,17.66,7.83,24.88,3.54,9.05,7.16,16.78,11.46,26.54-.12-8.16-.04-11.71,1.51-22.1.82-5.46,2.15-10.85,4-16.06,4.41-12.38,4.86-16.67,7.94-32.43,3.42-17.56,8.32-35.91,15.44-51.59.08-.18.36-.04.29.14-3.76,10.32-25.96,67.02-16.19,100.47,2.22,7.61,5.2,15.16,10.33,21.19,3.53,4.15,7.9,7.48,12.04,11.01,10.39,8.85,19.55,19.13,27.15,30.47.73-14.83-5.07-35-7.1-43.63,2.53,3.84,4.98,8.69,8.44,11.8,6.29,5.65,12.01,10.11,18.55,15.46,7.5,6.14,15.95,13.54,24.75,17.59-5.09-6.4-7.58-14.46-9.41-22.43-1.83-7.97-3.12-16.13-6.25-23.69-2.64-6.37-6.56-12.2-11.46-17.05.01-.02,9.65,5.09,13.81,7.64,9.12,5.56,16.97,12.83,24.67,17.2-8.49-12.73-10.78-22.76-15.61-33.7-3.84-8.7-9.11-16.66-13.63-25.03-9.14-16.92-17.04-40.38-12.5-55.84.05-.16.32-.12.28.04-3.6,15.95.79,33.18,10.91,46.11,7.25,9.27,30.88,25.82,34.33,30.36-.68-7.75-1.22-10.63-13.37-30.24-9.51-15.37-11.01-22.28-11.86-31.91-.71-7.98.33-16.07,3.41-23.47,4.94-11.86,11.68-14.93,15.79-16.7,8.71-3.73,18.27-5.43,27.74-5.06,4.38.17,8.73.79,12.99,1.84,10.68,4.87,19.52,12.92,23.48,23.05.36.92.78,1.74,1.24,2.48-1.21,5.62-2.35,11.25-2.23,16.95.2,9.12,3.76,18.12,9.85,24.91,10.24,11.4,25.94,16.66,37.79,26.37,7.06,5.79,19.41,12.39,26.05,9.16,3.06-1.49,6.94-3.74,9.52-9.34,2.58-5.6.1-19.7,0-25.86-.23-13.5,2.05-17.35-1.22-30.45-1.53-6.13-3.33-12.32-6.88-17.54-4.21-6.18-10.54-10.52-16.72-14.72-7.17-4.87-14.92-11.77-22.91-16.65-.87-1.64-1.59-2.98-2.08-3.87.63-8.03-3.56-12.72-1.12-15.65,1.66-1.99,5.1-1.6,8.94-1.12,4.07.51,11.87,1.5,19.56,7.82,10.54,8.67,14.73,23.87,14.73,23.87,0,0,.31-7.33-.2-13.26-1.34-15.83-7.45-29.13-14.53-39.02-8.23-11.5-14.48-17.58-21.79-24.13-7.11-6.37-14.74-12.62-25.71-18.44-5.34-2.83-14.97-5.29-24.59-7.26-8.92-1.84-16.74-1.58-25.15-.56-10.83,1.32-20.89,2.55-29.26,4.31-13.18-2.84-26.96-2.39-54.01-1.51-34.4,1.12-56.97,1.86-82.15,10.06-56.08,18.27-87.76,61.39-97.79,75.44-11.31,15.84-25.6,40.47-33.53,73.2-2.36,9.73-9.35,41.65-3.35,82.7,4.84,33.09,15.88,56.83,20.12,65.38,17.57,35.47,40.71,57.18,50.85,65.94,7.49,6.48,36.53,30.64,82.15,43.59,21.46,6.09,49.22,13.98,82.15,6.15,19.37-4.61,35.73-13.51,45.82-19,12.37-6.73,29.05-17.26,27.94-19.56-1.35-2.82-26.74,12.07-65.94,16.76-23.03,2.76-41.5.87-51.41-.56-11.82-1.71-34.41-5.18-59.79-19-9.02-4.91-16.74-10.22-23.44-15.62,2.12.71,4.24,1.41,6.35,2.09,3.56,1.15,7.23,1.85,10.94,2.35,4.19.56,7.65,1.79,12.51,3.13-2.76-5.18-5.87-10.72-11.22-13.14-2.66-1.21-4.92-2.56-7.8-3.08-4.6-.82-14.62-3.22-14.06-3.11,3.64.69,21.17,4.9,33.09,4.21,2.94-.17,10.65-1.08,16.02-2.26,6.35-1.39,10.73-3.17,14.02-5.13-4.37-.78-13.09-6.34-25.74-7.95-6.88-.87-13.84-.22-20.53,1.58-4.82,1.3-11.7,1.63-16.26,1.79,8.07-.79,20.73-2.63,25.54-6.06,3.22-2.3,5.25-5.37,8.72-8-4.93.77-16.28-.41-20.51.41-1.23.24-3.1.99-4.21,1.58-4.37,2.32-17.85,4.7-14.05,3.82,1.98-.46,11.31-2.57,14.12-5.61,3.47-3.74,5.43-8.5,9.19-11.99-3.33,1.37-16.49,2.26-19.76,3.25-3.04.91-5.56,3.01-8.42,4.39-4.51,2.18-18.33,1.86-13.93,1.51,4.83-.38,9.83-.53,13.95-3.23,3.99-2.61,7.18-5.39,10.12-10.07-5.07,1.39-13.18,3.67-18.32,4.99-3.44.88-6.91,1.49-10.4.81-5.2-1.01-10.02-2.85-14.67-5.21-5.44-7.41-9.35-14.39-12.27-23.22-1.46-4.42-2.48-8.73-3.12-13.04,4.41,4.36,7.52,6.39,9.72,11.18.17-7.27-.48-11.78-3.08-18.57-1.74-4.52-6.54-17.74-6.36-19.04.04-.27.3-.23.35.03,1.74,9.3,11.1,27.62,16.86,30.81,5.87,3.24,15.95,6.89,20.64,8.99.37.16,2.39,3.68,2.25,3.3-1.84-4.9-7.1-21.09-9.19-25.89-1.04-2.4-5.4-7.08-9.3-10.64-5.34-4.89-10.92-10.7-11.97-12.58-.09-.16.21-.28.3-.12,4.77,8.16,12.13,13.24,18.89,20.53,7.42,8,21.34,11.15,29.57,13.93-4.87-5.43-15.23-24.81-17.47-26.91-1.76-1.64-7.7-3.38-12.28-5.55-4.06-1.93-8.81-5.41-8.81-5.41M280,189.83c-9.97,18.91-17.58,29.62-10.22,61.45,1.94,8.39,7.07,20.05,36.75,36.06-35.92-22.54-35.29-30.51-35.48-30.27-.31-.83-1.02-2.79-1.3-3.63-7.05-21.2-1.41-44.88,10.08-63.71.06-.1.22,0,.17.1Z"/>
    <path class="cls-6" d="M441.08,156.66c-1.73-1.21-4.6-4.46-6.84-6.76-5.32-5.48-23.46-29.61-38.34-43.39-7.95-7.36-43.43-30.48-15.64-11.77"/>
    <path class="cls-3" d="M278.34,309.7c2.91-3,4.66-4.98,2.91-3-.45.51,1.91,4.41,2.01,5.09,2.68,17.53,4.89,28.7,5.29,34.35-3.1-3.42-9.69-11.36-12.79-14.78-2.14-2.36-4.29-4.74-6.72-6.8-2.82-2.41-9.08-7.67-13.82-12.58,7.67,1.41,17.45,3.56,23.11-2.27Z"/>
    <path class="cls-3" d="M214.08,263.73c6.43,2.48,13.1,1.96,19.48-.65-1.08,2.38-1.45,5.21-2.53,7.59-.49,1.08-.98,2.17-1.39,3.29-.39,1.08-.38,2.35-1.02,3.31-3.46,5.19-3.58,23.03-3.46,24.96.01.18-1.07-5.39-1.2-5.51-.66-.6-2.26-1.25-2.65-2.05-5.34-10.75-12.23-33.57-12.23-33.57,0,0,3.64,2.11,5.02,2.65Z"/>
    <path class="cls-3" d="M203.6,228.56c0,3.21-.64,6.43-2.12,9.88-1.21,2.83-8.04,11.31-10.35,13.34-2.11,1.85-4.23,3.7-6.34,5.55-.16.14-.36.29-.57.26-.31-.05-.42-.43-.44-.74-.17-2.18.14-4.74.28-6.92.12-1.9-1.78-24.91-1.78-24.91,0,0,7.1,9.71,21.34,3.54Z"/>
    <path class="cls-3" d="M316.58,303.33c1.39,1.13,1.59,3.12,2.03,4.85.86,3.39,1.17,6.3,2,9.7.82,3.35,2.15,7,3.22,10.27.49,1.49.05,3.34.65,4.79,1.68,4.08,3.01,8.29,5.28,12.07.23.39,1.32,2.06.99,2.37-.32.3-1.71-.13-2.07-.38-4.8-3.33-30.48-20.27-40.15-32.44,16.14.46,25.22-6.82,28.04-11.24Z"/>
    <path class="cls-3" d="M313.83,251.3c3.55,6.28,3.62,4.7,6.54,10.63l3.83,7.07c1.08,1.99,2.16,3.98,3.23,5.96,2.24,4.12,3.25,7.7,5.17,11.98.93,2.08,7.88,18.18,9.58,22.83-2.61-.22-4.76-4.82-6.53-6.75-1.41-1.54-3.78-.98-5.47-2.21-4.46-3.24-6.12-5.29-11.19-7.43-2.55-1.08-7.39-4.88-10-5.81-9.29-3.34-17.83-8.73-24.87-15.64-.67-.66-4.94-4.66-4.73-4.67,11.24-.23,28.32-5.91,34.43-15.97Z"/>
    <path class="cls-3" d="M338.32,249.39c1.4,1.85,2.18,4.32,3.58,6.17.93,1.23,1.43,3.31,2.18,4.66.8,1.44,1.62,2.63,2.04,4.23.49,1.84,1.6,2.66,1.44,4.56-.02.19-.04.4-.14.57-.22.39-.78.47-1.19.31s-.73-.51-1.03-.85c-2.83-3.16-6.57-4.56-9.69-7.44-1.55-1.44-8.6-7.23-8.6-7.23,0,0,8.51.99,11.42-4.98Z"/>
    <path class="cls-3" d="M151.41,292.71c.25,2.68-1.13,5.44-3.41,6.85.79.15,1.59-.16,2.34-.46,2.46-.99,4.91-1.97,7.37-2.96.81-.32,4.53-2.59,4.31-3.43-.1-.4-3.22.96-3.61.8-1.14-.46-2.42-.05-3.63.18s-2.69.16-3.36-.87"/>
    <path class="cls-3" d="M156.12,320.63c4.56,1.7,6.94,2.05,13.65,1.76.11,0,7.42-2.53,7.47-2.64.13-.32-9.78-6.63-10.11-6.74-2.42-.78-7.58-3.08-7.58-3.08,0,0,2.15,4.74-3.43,10.7Z"/>
    <path class="cls-10" d="M163.05,330.75s-1.14,10.67-10.95,9.11c2.2,1.5,6.7,3.66,8.9,5.16,1.3.88,10.27,4.05,12.93,4.43.51-1.06-.9-2.6-1.89-3.24-3.59-2.31-8.99-15.47-8.99-15.47Z"/>
    <path class="cls-1" d="M149.87,343.54c2.41,4.49,5.56,17.54,11.62,22.7-4.19-.81-12.22-3.62-16.42-5.31-1.19-.48-13.96-10.91-13.96-10.91,0,0,14.77,3.52,18.76-6.48Z"/>
    <path class="cls-8" d="M123.91,341.33c1.72,2.37,2.3,12.57,2.37,15.5-1.13-1.75-8.21-8.19-8.44-8.43,0,0,0,0,0,0,2.59-.69,4.62-1.35,6.07-7.06Z"/>
    <path class="cls-10" d="M47.74,293.2c-1.96-.77-5.7-2.97-6.82-4.75,1.46-1.14,13.59-.41,13.59-.41,0,0-1.44,4.26-.72,6.36-1.97.05-4.2-.47-6.05-1.2Z"/>
    <path class="cls-10" d="M43.6,317.86c-4.9,2.67-12.42,2.28-16.78-1.19.94-1.36,3.61-2.21,5.04-3.03,1.24-.72,2.39-1.61,3.52-2.49,1.57-1.22,3.26-2.87,4.98-3.66-.66,1.93-.73,3.97-.09,5.92.15.46,2.7,5.08,3.34,4.46Z"/>
    <path class="cls-10" d="M53.32,335.33c-5.89,3.43-13.81,7.9-20.54,10.44-.02-1.86,2.22-5.65,3.4-7.09,1.94-2.38,6.63-13.81,6.63-13.81,0,0-.89,12.26,10.51,10.46Z"/>
    <path class="cls-10" d="M62.25,348.87c1.51,1.35,3.5,2.07,5.51,2.35-5.69,3.29-11.34,6.64-16.95,10.06.61-2.05,2.47-3.47,3.47-5.37.99-1.89,1.09-4.2,2.29-5.97.67-.99,1.63-1.74,2.4-2.66.54-.65.91-1.41,1.07-2.24.37,1.46,1.08,2.81,2.23,3.83Z"/>
    <path class="cls-1" d="M135.42,483.54c3.09-.65,5.57-2.88,7.82-5.1-1.09,9.75-5.33,22.15-9.67,31.1-1.04-1.28-3.39-13.39-4.36-14.46-1.72-1.89-1.72-4.73-1.63-7.29.09-2.44-.07-5.12.39-7.48,1.71,2.46,4.39,3.87,7.44,3.23Z"/>
    <path class="cls-1" d="M123.41,468.66c2.04.61,4.33.29,6.12-.85-2.74,6.04-6.5,8.14-9.75,12.21-.2.26-.49.54-.81.45-.45-.13-.35-.79-.19-1.23,1.53-4.28-1.43-9.63.42-13.49,1.28,1.18,2.43,2.4,4.2,2.92Z"/>
    <path class="cls-1" d="M122.12,454.48c-3.64,4.78-8.85,8.07-13.94,11.25-.56-.98.26-2.12.84-3.09,1.2-2.01,2.8-19.1,3.26-16.72.99,5.2,6.98,12.31,9.84,8.56Z"/>
    <path class="cls-1" d="M115.13,438.91c-3.11,2.95-6.32,5.81-9.62,8.55-.46-1.19-.22-2.51.03-3.76.36-1.84,1.71-11.06,2.83-9.04,1.82,3.28,4.82,3.55,6.76,4.25Z"/>
    <path class="cls-1" d="M152.55,468.03c1-1.05,2.05-2.17,2.36-3.59,1.15,5.8-.46,12,1.38,17.62-1.61.11-3.07-.92-4.26-2.02-1.51-1.41-9.15-10.72-6.97-10.11,3.28.91,5.87-.22,7.49-1.9Z"/>
    <path class="cls-10" d="M187.21,436.38c1.31-.26,2.62-.52,3.92-.78.87-.17,1.76-.35,2.51-.83,2.05-1.29,2.3-4.12,2.34-6.53,1.65.07,3.43.68,4.53,1.92,1.11,1.23,1.86,2.73,2.61,4.21.66,1.32,1.33,2.64,1.99,3.96,2.58,2.91-1.77,1.36-3.12,1-1.86-.5-4.74-1.77-6.65-1.54-1.24.15-2.47.46-3.71.31-1.59-.18-3.1-.84-4.43-1.72Z"/>
    <path class="cls-10" d="M210.24,417.51c.42,3.32-1.57,6.8-4.65,8.12,3.92-.01,7.91-.04,11.66-1.17,2.07-.62,6.63-1.52,8.74-2.02,8.38-1.97,7.33-3.24,5.87-4.4-3.43-3.04-9.65-4.5-14.12-5.48-1.63-.36-3.3-.56-4.96-.76-2.7-.33-5.53-.92-8.24-.91,2.76,1.25,5.33,3.32,5.7,6.62Z"/>
    <path class="cls-10" d="M191.15,404.99c1.17,1.84,1.44,4.24.7,6.29,4.45-.66,8.68-2.74,11.92-5.87,1.11-1.07,3.45-2.95,3.12-4.46-1.24-.65-4.02.24-5.42.33-2.19.14-4.31-.64-6.48-.97-2.74-.42-6.52-.26-8.84,1.36,2.02.55,3.84,1.51,4.99,3.33Z"/>
    <path class="cls-10" d="M178.04,396.08c1.38,1.95,1.9,4.49,1.38,6.83,5.48-2.69,9.83-7.58,11.86-13.34-1.55.09-2.32-.33-3.82.06-1.87.49-4.34,1.34-6.27,1.17-2.6-.23-6.14.37-8.27,1.77,2.02.72,3.84,1.71,5.11,3.5Z"/>
    <path class="cls-10" d="M164.42,390.63c.56,1.72.69,2.98-.56,4.28,4.37-2.33,8.27-5.57,11.37-9.43-2.95.15-6.13,1.68-9.08,1.83-1.45.07-3.29.37-4.58,1.01,1.29.76,2.37.82,2.86,2.31Z"/>
    <path class="cls-3" d="M339.12,477.3c11.64-5.64,22.89-12.06,33.67-19.2,2.15-1.43,4.5-3.24,4.66-5.82-4.06.63-7.9,2.29-11.81,3.39-2.09.7-4.16,1.4-6.25,2.1-4.44,1.73-9.76,2.72-14.19,4.83.43.91-2.73,11.42-6.08,14.7Z"/>
    <path class="cls-1" d="M476.15,132.97c1.31,1.65,1.35,4.02,1.83,6.07.75,3.21.77,6.19,1.52,9.4,1.01,4.33,1.61,11.25.6,15.58.15-.64-3.51-8.41-4-9.5-.55-1.23-5.37-6.47-5.37-6.47,0,0,6.45-3.25,5.41-15.07Z"/>
    <path class="cls-6" d="M284.29,309.56c-1.46-1.08-10.31-19.65-12.39-28.47-1.67-7.09-2.82-16.94.12-23.5"/>
  </g>
</svg>